<?xml version="1.0" encoding="iso-8859-1"?>
<!-- Generator: Adobe Illustrator 19.0.0, SVG Export Plug-In . SVG Version: 6.00 Build 0)  -->
<svg xmlns="http://www.w3.org/2000/svg" xmlns:xlink="http://www.w3.org/1999/xlink" version="1.1" id="Layer_1" x="0px" y="0px" viewBox="0 0 512 512" style="enable-background:new 0 0 512 512;" xml:space="preserve">
<g>
	<g>
		<path d="M418.99,208.488V70.731H0v313.535h135.666v25.63H93.21v31.372h232.57v-31.372h-42.455v-25.63h86.528v57.003H512V208.488    H418.99z M401.225,239.86h79.403v113.034h-79.403V239.86z M251.952,409.896h-84.913v-25.63h84.913V409.896z M369.852,352.894    H31.372v-25.63h338.479V352.894z M387.618,208.488h-17.766v87.404H31.372V102.104h356.245V208.488z M480.628,409.896h-79.404    v-25.63h17.766h61.637V409.896z"/>
	</g>
</g>
<g>
	<g>
		<polygon points="340.366,210.537 266.878,210.537 292.806,193.525 275.595,167.296 185.784,226.223 275.595,285.152     292.806,258.923 266.878,241.91 340.366,241.91   "/>
	</g>
</g>
<g>
	<g>
		<polygon points="132.744,112.518 115.533,138.748 141.461,155.76 67.974,155.76 67.974,187.132 141.461,187.132 115.533,204.146     132.744,230.375 222.554,171.446   "/>
	</g>
</g>
<g>
</g>
<g>
</g>
<g>
</g>
<g>
</g>
<g>
</g>
<g>
</g>
<g>
</g>
<g>
</g>
<g>
</g>
<g>
</g>
<g>
</g>
<g>
</g>
<g>
</g>
<g>
</g>
<g>
</g>
</svg>
