<?xml version="1.0" encoding="iso-8859-1"?>
<!-- Generator: Adobe Illustrator 19.0.0, SVG Export Plug-In . SVG Version: 6.00 Build 0)  -->
<svg xmlns="http://www.w3.org/2000/svg" xmlns:xlink="http://www.w3.org/1999/xlink" version="1.1" id="Layer_1" x="0px" y="0px" viewBox="0 0 512 512" style="enable-background:new 0 0 512 512;" xml:space="preserve">
<g>
	<g>
		<path d="M480.653,201.08c0,16.046-9.686,29.868-23.514,35.943c-6.791-37.974-26.693-72.916-57.732-100.507    c-21.772-19.353-47.574-33.769-75.695-42.63c0.123-1.68,0.206-3.369,0.206-5.071c0-37.45-30.468-67.918-67.918-67.918    c-28.622,0-53.147,17.805-63.128,42.912c-17.04-13.76-38.703-22.014-62.26-22.014h-15.673v92.688    c-0.784,0.675-1.572,1.347-2.346,2.034c-24.898,22.131-42.625,48.995-52.175,78.357L0,220.918v111.961l69.224,6.922    c10.18,20.877,24.772,40.049,43.369,56.578c3.694,3.283,7.504,6.421,11.422,9.417l14.218,85.307h78.8l7.331-43.986    c10.375,1.444,20.943,2.19,31.636,2.19c14.213,0,28.203-1.31,41.81-3.844l7.607,45.64h78.8l15.894-95.364    c37.729-33.86,58.813-78.645,59.607-126.488C489.792,261.165,512,233.674,512,201.08H480.653z M31.347,304.509v-55.223    l22.028-2.203c-0.743,6.389-1.13,12.849-1.13,19.365c0,13.856,1.701,27.469,5.013,40.651L31.347,304.509z M256,52.245    c20.166,0,36.571,16.406,36.571,36.571c0,7.567-2.298,14.805-6.56,20.898h-60.023c-4.262-6.093-6.56-13.331-6.56-20.898    C219.429,68.651,235.835,52.245,256,52.245z M146.286,74.968c13.864,3.287,26.09,10.84,35.228,21.183    c-12.273,4.318-24.065,9.715-35.228,16.136V74.968z M190.478,459.755h-25.69l-5.367-32.2c10.948,5.3,22.404,9.669,34.244,13.068    L190.478,459.755z M357.661,459.755h-25.69l-3.706-22.237c12.451-4.229,24.422-9.557,35.757-15.936L357.661,459.755z M256,417.959    c-95.066,0-172.408-67.967-172.408-151.51c0-65.602,47.694-121.593,114.209-142.618c2.712,4.488,5.953,8.697,9.711,12.53    l4.609,4.7h87.758l4.609-4.7c3.758-3.833,7-8.042,9.711-12.53c66.513,21.025,114.208,77.016,114.208,142.618    C428.408,349.992,351.066,417.959,256,417.959z"/>
	</g>
</g>
<g>
	<g>
		<rect x="130.612" y="214.204" width="31.347" height="31.347"/>
	</g>
</g>
<g>
</g>
<g>
</g>
<g>
</g>
<g>
</g>
<g>
</g>
<g>
</g>
<g>
</g>
<g>
</g>
<g>
</g>
<g>
</g>
<g>
</g>
<g>
</g>
<g>
</g>
<g>
</g>
<g>
</g>
</svg>
