<?xml version="1.0" encoding="iso-8859-1"?>
<!-- Generator: Adobe Illustrator 19.0.0, SVG Export Plug-In . SVG Version: 6.00 Build 0)  -->
<svg xmlns="http://www.w3.org/2000/svg" xmlns:xlink="http://www.w3.org/1999/xlink" version="1.1" id="Layer_1" x="0px" y="0px" viewBox="0 0 512 512" style="enable-background:new 0 0 512 512;" xml:space="preserve">
<g>
	<g>
		<path d="M132.005,214.204c-23.046,0-41.796,18.75-41.796,41.796s18.75,41.796,41.796,41.796s41.796-18.75,41.796-41.796    S155.051,214.204,132.005,214.204z M132.005,266.449c-5.762,0-10.449-4.687-10.449-10.449c0-5.762,4.687-10.449,10.449-10.449    c5.762,0,10.449,4.687,10.449,10.449C142.454,261.762,137.767,266.449,132.005,266.449z"/>
	</g>
</g>
<g>
	<g>
		<path d="M379.995,320.436c-15.986,0-31.067,3.942-44.331,10.897l-108.053-69.598c0.113-1.898,0.177-3.809,0.177-5.734    c0-1.926-0.064-3.837-0.177-5.734l108.053-69.597c13.264,6.955,28.344,10.897,44.331,10.897c52.814,0,95.782-42.968,95.782-95.783    C475.777,42.968,432.809,0,379.995,0c-52.814,0-95.783,42.968-95.783,95.782c0,2.029,0.071,4.042,0.196,6.041l-107.802,69.436    c-13.329-7.044-28.506-11.04-44.602-11.04c-52.814,0-95.782,42.968-95.782,95.783s42.967,95.783,95.782,95.783    c16.096,0,31.273-3.997,44.602-11.04l107.802,69.436c-0.125,1.998-0.196,4.011-0.196,6.041c0,52.813,42.968,95.782,95.783,95.782    c52.814,0,95.782-42.968,95.782-95.783C475.777,363.403,432.809,320.436,379.995,320.436z M379.995,31.347    c35.53,0,64.435,28.906,64.435,64.435c0,35.53-28.905,64.436-64.435,64.436c-35.53,0-64.436-28.905-64.436-64.436    C315.559,60.253,344.465,31.347,379.995,31.347z M292.213,134.082c4.246,9.697,10.051,18.562,17.101,26.272l-89.417,57.595    c-4.22-9.709-9.998-18.592-17.025-26.321L292.213,134.082z M132.005,320.436c-35.53,0-64.435-28.906-64.435-64.436    s28.905-64.436,64.435-64.436S196.441,220.47,196.441,256S167.535,320.436,132.005,320.436z M292.212,377.919l-89.341-57.546    c7.027-7.729,12.805-16.612,17.024-26.321l89.417,57.595C302.263,359.357,296.458,368.222,292.212,377.919z M379.995,480.653    c-35.53,0-64.436-28.906-64.436-64.436s28.906-64.436,64.436-64.436c35.53,0,64.435,28.906,64.435,64.436    S415.525,480.653,379.995,480.653z"/>
	</g>
</g>
<g>
	<g>
		<path d="M379.995,53.987c-23.046,0-41.796,18.75-41.796,41.796s18.75,41.796,41.796,41.796s41.796-18.75,41.796-41.796    S403.041,53.987,379.995,53.987z M379.995,106.231c-5.762,0-10.449-4.687-10.449-10.449c0-5.762,4.687-10.449,10.449-10.449    c5.762,0,10.449,4.687,10.449,10.449C390.444,101.543,385.756,106.231,379.995,106.231z"/>
	</g>
</g>
<g>
	<g>
		<path d="M379.995,374.421c-23.046,0-41.796,18.75-41.796,41.796s18.75,41.796,41.796,41.796s41.796-18.75,41.796-41.796    S403.041,374.421,379.995,374.421z M379.995,426.666c-5.762,0-10.449-4.686-10.449-10.449c0-5.762,4.687-10.449,10.449-10.449    c5.762,0,10.449,4.687,10.449,10.449S385.756,426.666,379.995,426.666z"/>
	</g>
</g>
<g>
</g>
<g>
</g>
<g>
</g>
<g>
</g>
<g>
</g>
<g>
</g>
<g>
</g>
<g>
</g>
<g>
</g>
<g>
</g>
<g>
</g>
<g>
</g>
<g>
</g>
<g>
</g>
<g>
</g>
</svg>
