<?xml version="1.0" encoding="iso-8859-1"?>
<!-- Generator: Adobe Illustrator 19.0.0, SVG Export Plug-In . SVG Version: 6.00 Build 0)  -->
<svg xmlns="http://www.w3.org/2000/svg" xmlns:xlink="http://www.w3.org/1999/xlink" version="1.1" id="Layer_1" x="0px" y="0px" viewBox="0 0 512 512" style="enable-background:new 0 0 512 512;" xml:space="preserve">
<g>
	<g>
		<path  style="stroke-linecap: round; stroke-linejoin: round; stroke-dasharray: 5473.4033203125; stroke-dashoffset: 5473.4033203125;" fill="none" stroke="#000000" stroke-width="6" d="M477.668,393.504V118.846h-156.31c-4.649-12.445-11.361-24.122-19.969-34.451L256,29.928l-45.389,54.466    c-8.608,10.33-15.32,22.008-19.969,34.451H34.332v274.659H0v88.568h512v-88.568H477.668z M446.321,150.194v243.311h-60.889    c-4.158-30.315-27.022-54.753-56.537-61.246v-33.293h46.342l-46.342-77.235v-61.366c0-3.405-0.151-6.799-0.443-10.172H446.321z     M214.453,230.414v-70.049c0-20.388,7.188-40.241,20.24-55.903L256,78.893l21.308,25.569c13.052,15.662,20.24,35.516,20.24,55.903    v70.049l22.323,37.206h-37.375L256,302.947l-26.495-35.328H192.13L214.453,230.414z M198.779,361.91h15.673v-0.001v-62.113    L256,355.192l41.547-55.396v62.114h15.673c19.479,0,35.863,13.477,40.334,31.596h-195.11    C162.917,375.388,179.3,361.91,198.779,361.91z M65.679,150.193h117.87c-0.292,3.374-0.443,6.768-0.443,10.172v61.366    l-46.342,77.235h46.342v33.292c-29.516,6.494-52.38,30.931-56.537,61.246H65.679V150.193z M480.653,450.725H31.347v-25.874h2.985    h443.336h2.985V450.725z"/>
	</g>
</g>
<g>
	<g>
		<rect x="240.327" y="150.695" width="31.347" height="31.347"/>
	</g>
</g>
<g>
</g>
<g>
</g>
<g>
</g>
<g>
</g>
<g>
</g>
<g>
</g>
<g>
</g>
<g>
</g>
<g>
</g>
<g>
</g>
<g>
</g>
<g>
</g>
<g>
</g>
<g>
</g>
<g>
</g>
</svg>
