<?xml version="1.0" encoding="utf-8"?>
<!-- Generator: Adobe Illustrator 21.1.0, SVG Export Plug-In . SVG Version: 6.00 Build 0)  -->
<svg version="1.1" id="Layer_1" xmlns="http://www.w3.org/2000/svg" xmlns:xlink="http://www.w3.org/1999/xlink" x="0px" y="0px"
	 viewBox="0 0 612 792" style="enable-background:new 0 0 612 792;" xml:space="preserve">
<g>
	<path d="M436.2,358.2V248H101v250.8h108.5v20.5h-34v25.1h186.1v-25.1h-34v-20.5h69.2v45.6h113.7V358.2H436.2z M422,383.3h63.5v90.4
		H422V383.3z M302.6,519.3h-67.9v-20.5h67.9V519.3z M396.9,473.7H126.1v-20.5h270.8L396.9,473.7L396.9,473.7z M411.1,358.2h-14.2
		v69.9H126.1v-155h285V358.2z M485.5,519.3H422v-20.5h63.5L485.5,519.3L485.5,519.3z M485.5,519.3"/>
	<path d="M373.3,359.8h-58.8l20.7-13.6l-13.8-21l-71.8,47.1l71.8,47.1l13.8-21l-20.7-13.6h58.8V359.8z M373.3,359.8"/>
	<path d="M207.2,281.4l-13.8,21l20.7,13.6h-58.8v25.1h58.8l-20.7,13.6l13.8,21l71.8-47.1L207.2,281.4z M207.2,281.4"/>
</g>
</svg>
