<?xml version="1.0" encoding="utf-8"?>
<!-- Generator: Adobe Illustrator 21.1.0, SVG Export Plug-In . SVG Version: 6.00 Build 0)  -->
<svg version="1.1" id="Layer_1" xmlns="http://www.w3.org/2000/svg" xmlns:xlink="http://www.w3.org/1999/xlink" x="0px" y="0px"
	 viewBox="0 0 409.6 296.4" style="enable-background:new 0 0 409.6 296.4;" xml:space="preserve">
<g>
	<path d="M335.2,110.2V0H0v250.8h108.5v20.5h-34v25.1h186.1v-25.1h-34v-20.5h69.2v45.6h113.7V110.2H335.2z M321,135.3h63.5v90.4H321
		V135.3z M201.6,271.3h-67.9v-20.5h67.9V271.3z M295.9,225.7H25.1v-20.5h270.8L295.9,225.7L295.9,225.7z M310.1,110.2h-14.2v69.9
		H25.1v-155h285V110.2z M384.5,271.3H321v-20.5h63.5L384.5,271.3L384.5,271.3z M384.5,271.3"/>
	<path d="M272.3,111.8h-58.8l20.7-13.6l-13.8-21l-71.8,47.1l71.8,47.1l13.8-21l-20.7-13.6h58.8V111.8z M272.3,111.8"/>
	<path d="M106.2,33.4l-13.8,21L113.2,68H54.4v25.1h58.8l-20.7,13.6l13.8,21L178,80.6L106.2,33.4z M106.2,33.4"/>
</g>
</svg>
