<?xml version="1.0" encoding="utf-8"?>
<!-- Generator: Adobe Illustrator 21.1.0, SVG Export Plug-In . SVG Version: 6.00 Build 0)  -->
<svg version="1.1" id="Layer_1" xmlns="http://www.w3.org/2000/svg" xmlns:xlink="http://www.w3.org/1999/xlink" x="0px" y="0px"
	 viewBox="0 0 612 792" style="enable-background:new 0 0 612 792;" xml:space="preserve">
<g>
	<path d="M206.6,362.4c-18.4,0-33.4,15-33.4,33.4c0,18.4,15,33.4,33.4,33.4c18.4,0,33.4-15,33.4-33.4
		C240.1,377.4,225.1,362.4,206.6,362.4L206.6,362.4z M206.6,404.2c-4.6,0-8.4-3.8-8.4-8.4c0-4.6,3.8-8.4,8.4-8.4s8.4,3.8,8.4,8.4
		C215,400.4,211.2,404.2,206.6,404.2L206.6,404.2z M206.6,404.2"/>
	<path d="M405,447.3c-12.8,0-24.9,3.2-35.5,8.7l-86.4-55.7c0.1-1.5,0.1-3,0.1-4.6s-0.1-3.1-0.1-4.6l86.4-55.7
		c10.6,5.6,22.7,8.7,35.5,8.7c42.2,0,76.6-34.4,76.6-76.6c0-42.3-34.4-76.6-76.6-76.6c-42.3,0-76.6,34.4-76.6,76.6
		c0,1.6,0.1,3.2,0.2,4.8L242.3,328c-10.7-5.6-22.8-8.8-35.7-8.8c-42.3,0-76.6,34.4-76.6,76.6c0,42.3,34.4,76.6,76.6,76.6
		c12.9,0,25-3.2,35.7-8.8l86.2,55.5c-0.1,1.6-0.2,3.2-0.2,4.8c0,42.2,34.4,76.6,76.6,76.6c42.2,0,76.6-34.4,76.6-76.6
		C481.6,481.7,447.3,447.3,405,447.3L405,447.3z M405,216.1c28.4,0,51.5,23.1,51.5,51.5c0,28.4-23.1,51.6-51.5,51.6
		c-28.4,0-51.6-23.1-51.6-51.6C353.5,239.2,376.6,216.1,405,216.1L405,216.1z M334.8,298.3c3.4,7.8,8,14.8,13.7,21l-71.5,46.1
		c-3.4-7.8-8-14.9-13.6-21.1L334.8,298.3z M206.6,447.3c-28.4,0-51.5-23.1-51.5-51.5c0-28.4,23.1-51.6,51.5-51.6
		c28.4,0,51.6,23.1,51.6,51.6C258.2,424.2,235.1,447.3,206.6,447.3L206.6,447.3z M334.8,493.3l-71.5-46c5.6-6.2,10.2-13.3,13.6-21.1
		l71.5,46.1C342.8,478.5,338.2,485.6,334.8,493.3L334.8,493.3z M405,575.5c-28.4,0-51.6-23.1-51.6-51.6c0-28.4,23.1-51.5,51.6-51.5
		c28.4,0,51.5,23.1,51.5,51.5C456.6,552.4,433.4,575.5,405,575.5L405,575.5z M405,575.5"/>
	<path d="M405,234.2c-18.4,0-33.4,15-33.4,33.4c0,18.4,15,33.4,33.4,33.4c18.4,0,33.4-15,33.4-33.4
		C438.5,249.2,423.5,234.2,405,234.2L405,234.2z M405,276c-4.6,0-8.4-3.8-8.4-8.4c0-4.6,3.8-8.4,8.4-8.4c4.6,0,8.4,3.8,8.4,8.4
		C413.4,272.2,409.6,276,405,276L405,276z M405,276"/>
	<path d="M405,490.5c-18.4,0-33.4,15-33.4,33.4c0,18.4,15,33.4,33.4,33.4c18.4,0,33.4-15,33.4-33.4
		C438.5,505.5,423.5,490.5,405,490.5L405,490.5z M405,532.3c-4.6,0-8.4-3.7-8.4-8.4c0-4.6,3.8-8.4,8.4-8.4c4.6,0,8.4,3.8,8.4,8.4
		C413.4,528.6,409.6,532.3,405,532.3L405,532.3z M405,532.3"/>
</g>
</svg>
