<?xml version="1.0" encoding="utf-8"?>
<!-- Generator: Adobe Illustrator 21.1.0, SVG Export Plug-In . SVG Version: 6.00 Build 0)  -->
<svg version="1.1" id="Layer_1" xmlns="http://www.w3.org/2000/svg" xmlns:xlink="http://www.w3.org/1999/xlink" x="0px" y="0px"
	 viewBox="0 0 409.6 361.7" style="enable-background:new 0 0 409.6 361.7;" xml:space="preserve">
<g>
	<path d="M382.1,290.9V71.1h-125c-3.7-10-9.1-19.3-16-27.6L204.8,0l-36.3,43.6c-6.9,8.3-12.3,17.6-16,27.6h-125v219.7H0v70.9h409.6
		v-70.9H382.1z M357.1,96.2v194.7h-48.7c-3.3-24.3-21.6-43.8-45.2-49v-26.6h37.1l-37.1-61.8v-49.1c0-2.7-0.1-5.4-0.4-8.1H357.1z
		 M171.6,160.4v-56c0-16.3,5.8-32.2,16.2-44.7l17-20.5l17,20.5C232.3,72.2,238,88,238,104.3v56l17.9,29.8H226l-21.2,28.3l-21.2-28.3
		h-29.9L171.6,160.4z M159,265.6h12.5v-49.7l33.2,44.3l33.2-44.3v49.7h12.5c15.6,0,28.7,10.8,32.3,25.3H126.8
		C130.3,276.4,143.4,265.6,159,265.6L159,265.6z M52.5,96.2h94.3c-0.2,2.7-0.4,5.4-0.4,8.1v49.1l-37.1,61.8h37.1v26.6
		c-23.6,5.2-41.9,24.7-45.2,49H52.5V96.2z M384.5,336.6H25.1v-20.7h359.4V336.6z M384.5,336.6"/>
	<rect x="192.3" y="96.6" width="25.1" height="25.1"/>
</g>
</svg>
