<?xml version="1.0" encoding="utf-8"?>
<!-- Generator: Adobe Illustrator 21.1.0, SVG Export Plug-In . SVG Version: 6.00 Build 0)  -->
<svg version="1.1" id="Layer_1" xmlns="http://www.w3.org/2000/svg" xmlns:xlink="http://www.w3.org/1999/xlink" x="0px" y="0px"
	 viewBox="0 0 612 792" style="enable-background:new 0 0 612 792;" xml:space="preserve">
<g>
	<path d="M483.1,505.9V286.1h-125c-3.7-10-9.1-19.3-16-27.6L305.8,215l-36.3,43.6c-6.9,8.3-12.3,17.6-16,27.6h-125v219.7H101v70.9
		h409.6v-70.9H483.1z M458.1,311.2v194.7h-48.7c-3.3-24.3-21.6-43.8-45.2-49v-26.6h37.1l-37.1-61.8v-49.1c0-2.7-0.1-5.4-0.4-8.1
		H458.1z M272.6,375.4v-56c0-16.3,5.8-32.2,16.2-44.7l17-20.5l17,20.5c10.4,12.5,16.2,28.4,16.2,44.7v56l17.9,29.8H327l-21.2,28.3
		l-21.2-28.3h-29.9L272.6,375.4z M260,480.6h12.5v-49.7l33.2,44.3l33.2-44.3v49.7h12.5c15.6,0,28.7,10.8,32.3,25.3H227.8
		C231.3,491.4,244.4,480.6,260,480.6L260,480.6z M153.5,311.2h94.3c-0.2,2.7-0.4,5.4-0.4,8.1v49.1l-37.1,61.8h37.1v26.6
		c-23.6,5.2-41.9,24.7-45.2,49h-48.7V311.2z M485.5,551.6H126.1v-20.7h359.4V551.6z M485.5,551.6"/>
	<rect x="293.3" y="311.6" width="25.1" height="25.1"/>
</g>
</svg>
