<?xml version="1.0" encoding="utf-8"?>
<!-- Generator: Adobe Illustrator 21.1.0, SVG Export Plug-In . SVG Version: 6.00 Build 0)  -->
<svg version="1.1" id="Layer_1" xmlns="http://www.w3.org/2000/svg" xmlns:xlink="http://www.w3.org/1999/xlink" x="0px" y="0px"
	 viewBox="0 0 612 792" style="enable-background:new 0 0 612 792;" xml:space="preserve">
<g>
	<path d="M459.8,241.8V191h-25.3v58.3l-22.9,22.9c-34.1-29.9-77.4-46.2-123.2-46.2c-50,0-97.1,19.5-132.5,54.9
		c-35.4,35.4-54.9,82.4-54.9,132.5c0,50,19.5,97.1,54.9,132.5c35.4,35.4,82.4,54.9,132.5,54.9c50,0,97.1-19.5,132.5-54.9
		c35.4-35.4,54.9-82.4,54.9-132.5c0-45.8-16.3-89.1-46.2-123.2l22.9-22.9h58.3v-25.3H459.8z M450.3,413.3c0,89.3-72.7,162-162,162
		c-89.3,0-162-72.7-162-162c0-89.3,72.7-162,162-162c40.1,0,76.9,14.7,105.2,38.9l-23.1,23.1c-22.3-18.4-50.9-29.4-82-29.4
		c-71.3,0-129.4,58-129.4,129.4c0,71.3,58,129.4,129.4,129.4c71.3,0,129.4-58,129.4-129.4c0-31.1-11-59.7-29.4-82.1l23.1-23.1
		C435.6,336.4,450.3,373.2,450.3,413.3L450.3,413.3z M297.3,422.2l30.5-30.5c3.5,6.4,5.5,13.7,5.5,21.5c0,24.8-20.2,44.9-44.9,44.9
		c-24.8,0-44.9-20.2-44.9-44.9c0-24.8,20.2-44.9,44.9-44.9c7.8,0,15.1,2,21.5,5.5l-30.5,30.5L297.3,422.2z M328.2,355.5
		c-11.3-7.8-25.1-12.5-39.9-12.5c-38.7,0-70.3,31.5-70.3,70.3s31.5,70.3,70.3,70.3c38.7,0,70.3-31.5,70.3-70.3
		c0-14.8-4.6-28.5-12.5-39.9l24.1-24.1c13.8,17.7,22.1,39.9,22.1,64c0,57.4-46.7,104-104,104c-57.4,0-104-46.7-104-104
		c0-57.4,46.7-104,104-104c24.1,0,46.4,8.3,64,22.1L328.2,355.5z M328.2,355.5"/>
</g>
</svg>
