<?xml version="1.0" encoding="utf-8"?>
<!-- Generator: Adobe Illustrator 21.1.0, SVG Export Plug-In . SVG Version: 6.00 Build 0)  -->
<svg version="1.1" id="Layer_1" xmlns="http://www.w3.org/2000/svg" xmlns:xlink="http://www.w3.org/1999/xlink" x="0px" y="0px"
	 viewBox="0 0 612 792" style="enable-background:new 0 0 612 792;" xml:space="preserve">
<style type="text/css">
	.st0{clip-path:url(#SVGID_2_);}
</style>
<g>
	<g>
		<defs>
			<rect id="SVGID_1_" x="103" y="191" width="405.8" height="410.9"/>
		</defs>
		<clipPath id="SVGID_2_">
			<use xlink:href="#SVGID_1_"  style="overflow:visible;"/>
		</clipPath>
		<path class="st0" d="M477.4,396.1c0-7.9-0.5-15.8-1.6-23.6l33.3-34.4l-51.3-88.8l-46.4,11.6c-12.5-9.8-26.3-17.7-40.9-23.7
			l-13.1-46H254.7l-13.1,46c-14.7,5.9-28.4,13.9-40.9,23.7l-46.4-11.6L103,338.1l33.2,34.4c-1.1,7.8-1.6,15.7-1.6,23.6
			s0.5,15.8,1.6,23.6L103,454.1l51.3,88.8l46.4-11.6c12.5,9.8,26.3,17.7,40.9,23.7l13.1,46h102.5l13.1-46
			c14.7-5.9,28.4-13.9,40.9-23.7l46.4,11.6l51.2-88.8l-33.2-34.4C476.8,412,477.4,404,477.4,396.1L477.4,396.1z M477.8,458l-32.3,56
			l-40.4-10.1l-4.9,4.1c-13.3,11.2-28.2,19.8-44.4,25.7l-6,2.2l-11.4,39.9h-64.7l-11.4-39.9l-6-2.2c-16.2-5.9-31.2-14.5-44.4-25.7
			l-4.9-4.1L166.5,514l-32.3-56l28.9-29.9l-1.1-6.3c-1.5-8.4-2.2-17.1-2.2-25.7c0-8.6,0.8-17.3,2.2-25.7l1.1-6.3l-28.9-29.9l32.3-56
			l40.4,10.1l4.9-4.1c13.3-11.2,28.2-19.8,44.4-25.7l6-2.2l11.4-39.9h64.7l11.4,39.9l6,2.2c16.2,5.9,31.2,14.5,44.4,25.7l4.9,4.1
			l40.4-10.1l32.3,56l-28.9,29.9l1.1,6.3c1.5,8.4,2.2,17.1,2.2,25.7c0,8.6-0.8,17.3-2.2,25.7l-1.1,6.3L477.8,458z M477.8,458"/>
	</g>
	<path d="M306,283.3c-62.2,0-112.8,50.6-112.8,112.8c0,62.2,50.6,112.8,112.8,112.8c62.2,0,112.9-50.6,112.9-112.8
		C418.8,333.9,368.2,283.3,306,283.3L306,283.3z M219.1,408.7h34.5c1.1,23.7,5.4,45.7,12.3,63c0.4,1,0.9,2.1,1.3,3.2
		C241.8,462.3,223.3,437.8,219.1,408.7L219.1,408.7z M266,320.5c-6.9,17.4-11.2,39.4-12.3,63.1h-34.5c4.2-29.1,22.7-53.7,48.2-66.2
		C266.8,318.4,266.4,319.5,266,320.5L266,320.5z M322.7,462.4c-5.9,14.8-12.8,21.5-16.7,21.5c-3.9,0-10.8-6.7-16.7-21.5
		c-5.8-14.6-9.5-33.3-10.5-53.7h54.5C332.2,429.1,328.5,447.8,322.7,462.4L322.7,462.4z M278.7,383.6c1.1-20.4,4.7-39.2,10.5-53.7
		c5.9-14.8,12.8-21.5,16.7-21.5c3.9,0,10.8,6.7,16.7,21.5c5.8,14.6,9.5,33.3,10.5,53.7H278.7z M392.9,383.6h-34.5
		c-1.1-23.7-5.4-45.7-12.3-63c-0.4-1-0.9-2.1-1.3-3.2C370.1,329.9,388.7,354.5,392.9,383.6L392.9,383.6z M344.7,474.9
		c0.5-1.1,0.9-2.2,1.3-3.2c6.9-17.4,11.2-39.4,12.3-63h34.5C388.7,437.8,370.1,462.3,344.7,474.9L344.7,474.9z M344.7,474.9"/>
</g>
</svg>
