<?xml version="1.0" encoding="iso-8859-1"?>
<!-- Generator: Adobe Illustrator 19.0.0, SVG Export Plug-In . SVG Version: 6.00 Build 0)  -->
<svg xmlns="http://www.w3.org/2000/svg" xmlns:xlink="http://www.w3.org/1999/xlink" version="1.1" id="Layer_1" x="0px" y="0px" viewBox="0 0 512 512" style="enable-background:new 0 0 512 512;" xml:space="preserve">
<g>
	<g>
		<path style="stroke-linecap: round; stroke-linejoin: round; stroke-dasharray: 2377.045166015625; stroke-dashoffset: 2377.045166015625;" fill="none" stroke="#000000" stroke-width="6"  d="M448.449,63.551V0h-31.67v72.828l-28.641,28.641c-42.664-37.356-96.755-57.764-153.99-57.764    c-62.543,0-121.343,24.355-165.567,68.581C24.355,156.509,0,215.309,0,277.852s24.355,121.343,68.579,165.567    C112.805,487.645,171.604,512,234.148,512s121.343-24.355,165.567-68.579c44.224-44.225,68.581-103.025,68.581-165.568    c0-57.235-20.409-111.327-57.763-153.991l28.64-28.64H512v0v-31.67H448.449z M436.625,277.852    c0,111.647-90.831,202.477-202.478,202.477S31.67,389.499,31.67,277.852S122.501,75.375,234.148,75.375    c50.136,0,96.066,18.324,131.467,48.617l-28.904,28.905c-27.931-22.967-63.664-36.773-102.563-36.773    c-89.178,0-161.729,72.551-161.729,161.729s72.551,161.729,161.729,161.729s161.729-72.551,161.729-161.729    c0-38.898-13.806-74.632-36.773-102.563l28.904-28.904C418.3,181.786,436.625,227.718,436.625,277.852z M245.344,289.049    l38.092-38.092c4.379,7.992,6.873,17.158,6.873,26.895c0,30.968-25.194,56.162-56.162,56.162s-56.162-25.194-56.162-56.162    c0-30.968,25.194-56.162,56.162-56.162c9.737,0,18.903,2.495,26.894,6.872l-38.092,38.092L245.344,289.049z M284.006,205.6    c-14.174-9.811-31.352-15.58-49.858-15.58c-48.431,0-87.832,39.401-87.832,87.832c0,48.431,39.401,87.832,87.832,87.832    s87.832-39.401,87.832-87.832c0-18.507-5.767-35.684-15.58-49.858l30.187-30.187c17.296,22.087,27.619,49.883,27.619,80.045    c0,71.715-58.345,130.059-130.059,130.059s-130.059-58.344-130.059-130.059s58.344-130.059,130.059-130.059    c30.163,0,57.958,10.323,80.045,27.62L284.006,205.6z"/>
	</g>
</g>
<g>
</g>
<g>
</g>
<g>
</g>
<g>
</g>
<g>
</g>
<g>
</g>
<g>
</g>
<g>
</g>
<g>
</g>
<g>
</g>
<g>
</g>
<g>
</g>
<g>
</g>
<g>
</g>
<g>
</g>
</svg>
